/* XPM */
static char *_93e3087e11b4437840e5d34ad8824f1jTKVRf4rdWNydatY[] = {
/* columns rows colors chars-per-pixel */
"64 64 212 2 ",
"   c None",
".  c #030013",
"X  c #06001B",
"o  c #0B001E",
"O  c #14021E",
"+  c #24041D",
"@  c #29041C",
"#  c #2C0A1E",
"$  c #320B1E",
"%  c #3D0E1F",
"&  c #0D0121",
"*  c #120324",
"=  c #19082A",
"-  c #290620",
";  c #2B0A21",
":  c #220722",
">  c #320C20",
",  c #380C20",
"<  c #391424",
"1  c #221333",
"2  c #261836",
"3  c #2A1B3A",
"4  c #281A38",
"5  c #371D34",
"6  c #2C1029",
"7  c #3A213A",
"8  c #2D213E",
"9  c #540007",
"0  c #560109",
"q  c #5A020A",
"w  c #5D191D",
"e  c #59171D",
"r  c #49131F",
"t  c #69060A",
"y  c #6E0B0C",
"u  c #661C1D",
"i  c #751411",
"p  c #7B1C13",
"a  c #791711",
"s  c #72110E",
"d  c #79231A",
"f  c #6D211F",
"g  c #421C25",
"h  c #481924",
"j  c #541922",
"k  c #581A22",
"l  c #451F33",
"z  c #641F22",
"x  c #4D2C2D",
"c  c #482329",
"v  c #5B2224",
"b  c #4B2634",
"n  c #562935",
"m  c #58323E",
"M  c #632222",
"N  c #6A2926",
"B  c #762B23",
"V  c #7A2A23",
"C  c #762926",
"Z  c #6C332C",
"A  c #7A3223",
"S  c #683337",
"D  c #783B33",
"F  c #632A32",
"G  c #76433E",
"H  c #332541",
"J  c #3A2C46",
"K  c #392C47",
"L  c #3E314B",
"P  c #432C42",
"I  c #4A3448",
"U  c #583B4B",
"Y  c #453953",
"T  c #4A3D55",
"R  c #433752",
"E  c #4D425B",
"W  c #59455A",
"Q  c #5D424D",
"!  c #63444D",
"~  c #634753",
"^  c #6A5058",
"/  c #554B62",
"(  c #5A4E63",
")  c #5E5368",
"_  c #61566C",
"`  c #67586A",
"'  c #675C70",
"]  c #775F66",
"[  c #6B6175",
"{  c #6D6578",
"}  c #76697A",
"|  c #72606E",
" . c #89140C",
".. c #85170E",
"X. c #97190B",
"o. c #981B0C",
"O. c #811C12",
"+. c #832B1E",
"@. c #8A2A1D",
"#. c #862316",
"$. c #972B18",
"%. c #8C311D",
"&. c #99331D",
"*. c #A52D13",
"=. c #A3351C",
"-. c #A9341A",
";. c #AE3A1C",
":. c #A63619",
">. c #B13D1D",
",. c #842D23",
"<. c #843324",
"1. c #8E3324",
"2. c #893B26",
"3. c #933424",
"4. c #9D3B24",
"5. c #9A3622",
"6. c #A43D23",
"7. c #AA3E22",
"8. c #A23621",
"9. c #B33F20",
"0. c #AC421F",
"q. c #B4421F",
"w. c #B8401F",
"e. c #9B4326",
"r. c #984628",
"t. c #9B5937",
"y. c #8A4B33",
"u. c #A34326",
"i. c #AC4422",
"p. c #A44A25",
"a. c #AC4B26",
"s. c #B44322",
"d. c #B94622",
"f. c #B44B25",
"g. c #BC4C23",
"h. c #A7532C",
"j. c #BB5326",
"k. c #BC5429",
"l. c #BD5C29",
"z. c #B65327",
"x. c #A95E34",
"c. c #AD6134",
"v. c #BE6331",
"b. c #B56434",
"n. c #BC6B35",
"m. c #C04E23",
"M. c #C35325",
"N. c #C75A27",
"B. c #CA5B27",
"V. c #C25629",
"C. c #C55C29",
"Z. c #CA5D29",
"A. c #CD622A",
"S. c #C9632B",
"D. c #D0652A",
"F. c #D26A2D",
"G. c #CB6630",
"H. c #CD6A32",
"J. c #C46531",
"K. c #D36D31",
"L. c #D86E30",
"P. c #C1733B",
"I. c #CE7538",
"U. c #D57334",
"Y. c #D97433",
"T. c #DC7A36",
"R. c #DB7D39",
"E. c #D67C3A",
"W. c #E07C37",
"Q. c #825E5B",
"!. c #C77C40",
"~. c #DD813B",
"^. c #E3843C",
"/. c #E6883E",
"(. c #EB8B3E",
"). c #E9863D",
"_. c #C88D4D",
"`. c #C68749",
"'. c #D78B46",
"]. c #DA904A",
"[. c #E58E43",
"{. c #EC8E41",
"}. c #ED9243",
"|. c #ED9B4C",
" X c #E99549",
".X c #F29543",
"XX c #F69A45",
"oX c #F99C46",
"OX c #F09F4C",
"+X c #F4A34E",
"@X c #FAA34B",
"#X c #F4A550",
"$X c #7D7484",
"%X c #776E80",
"&X c #837C8B",
"*X c #827582",
"=X c #8E8693",
"-X c #8F8896",
";X c #908996",
":X c #928B98",
">X c #9A929D",
",X c #97909D",
"<X c #8C838F",
"1X c #A1969D",
"2X c #9D97A2",
"3X c #9B95A1",
"4X c #9E98A4",
"5X c #A29BA4",
"6X c #A89FA6",
"7X c #A6A0AB",
"8X c #A9A4AE",
"9X c #AEA9B3",
/* pixels */
"                                                                                                                                ",
"                                                                                                                                ",
"                                                                                                                                ",
"                                                                                                                                ",
"                                                                                                                                ",
"                                                                                                                                ",
"                                                                                                                                ",
"                                          3X2X2X2X2X2X2X2X2X2X2X2X2X2X2X2X4X2X2X2X2X2X                                          ",
"                                        [ J L L L L P R R L L L L P L L R P L L R J J [                                         ",
"                                        Y X . X o X X X X X X X X X X X o X X X . X . Y                                         ",
"                                        Y . . X X X X X X X & X X & X X X X o X X X . Y                                         ",
"                                      >X! g g c c c c c x x x x x x x x x c c c c g g ! >X                                      ",
"                        $XE E T E Y Y ! t.c.c.b.n.P.P.`.`._._._._._._.`.!.n.P.n.b.c.c.t.Q Y Y E T T E *X                        ",
"                        / * X X X . X < c.).^.).XX@XoX@X                @X@XoX.X/.^.).c.< X X X X o * /                         ",
"                        / * o o X . X < c.~.^.).(.oXoX@X                @X@XoX.X/.~.^.c.g X X X X & * (                         ",
"                      1X^ g h g c < c Z b.R.T.W.^.^.^.(.          #X#X|./.W.R.W.T.T.T.b.Z c < c < c b ^ 1X                      ",
"                ;X` E U y.r.p.h.x.c.c.b.S.F.F.D.V.m.g.H.|.      ^.Y.Y.F.g.;.q.q.A.F.F.S.b.c.c.c.c.c.c.t.Q E ) -X                ",
"                { 3 & % e.Z.D.F.T.^.^.T.F.A.A.N.>.-.-.V.|.    #X~.D.D.M.*.X.X.*.j.A.A.F.T.~.^.W./.~.E.t.< & 8 {                 ",
"                { 3 * , r.C.A.F.T.~.~.T.F.A.A.M.9.-.-.l.|.    #XY.D.D.M.*.o.X.*.M.D.A.D.T.R.W.W.^.~.E.t.< & 8 {                 ",
"              5X` b < k p.H.L.Y.T.~.~.T.Y.L.L.F.C.V.k.H. X#X#X[.S.q.q.0.$. . .*.M.D.F.K.[.[.[.'.U.J.v.h.F c m ] 6X              ",
"        4X} / I Z ,.,.6.H.).(.(.~.~.~.~./.(.(.(.OXOX|. X~.~.~.S.%.p p s s t t #.l.T.T.~.|.     Xk.:.;.0.h.c.t.y.W / } 4X        ",
"        &XR = @ u &.-.m.R..XXX}.~.~.~.^.(.oXoX@X      #XY.B.B.f.a 9 9 9 q 9 9 d v.~.~.(.       Xi.X.o.0.U.~.P.y.# = L &X        ",
"        &XY = + u &.-.m.W..XXX}.^.~.~./.(.(.oX@X      #XY.B.D.q.a 9 9 q 9 9 9 p v.~.~.[.       Xq.X.o.;.H.~.P.y.> = T &X        ",
"      6X} U g r +.8.;.M.T.}.}./.~.Y.Y.~.^.~.~./.#X    oX^.F.Y.N.%.a p d A %.+.r.I./.^.[.#X    {.j.-.:.d.S.I.v.r.v c W Q.7X      ",
">X&X) I S C ,.&.7.g.m.Z.Y.~./.~.F.D.A.N.q.0.;.M.^.@X@XoX(.(.(.^.M.0.0.z.~.].].].{.}.}.{.{.[.{.R.Y.K.G.G.N.V.k.k.h.r.y.G Q E R E ",
"$X_ 2 @ e @.-.9.m.M.B.D.U.R.~.U.A.N.B.g.*.o.X.q.~.(.(.oXoXoXoX(.L.B.B.Y.OX      +XoXXX}.{.!.W.[.W.!.R.K.V.d.g.M.A.S.p.N + . . . ",
"$X) 2 @ u #.=.9.m.M.B.Z.Y.~.~.T.D.B.B.g.*.o.X.;.^.oXoXoX(.oXoX(.F.B.B.Y.#X      @XoXXX.XW.W.R.!.[.R.W.U.V.d.g.M.A.N.p.A $ o X o ",
"$X_ 4 @ u ,.=.9.m.m.M.Z.F.E.Y.F.M.M.q.q.o. . .:.Y.(.(.(.~.~.~.U.j.0.q.S.|.    #X{.W.[.W.H.J.J.J.H.U.K.G.V.m.g.M.N.j.e.N # o o O ",
"*X_ 3 @ w ,.=.>.d.d.g.V.Z.F.F.N.q.*.*.o.a t t #.l.Y.Y.D.g.0.0.*.#.i i &.~.@X@X}.K.Z.Z.k.@.d p @.f.N.V.V.B.B.N.M.d.;.1.z ; & o * ",
"&X_ 3 @ u @.=.>.9.d.d.g.N.D.A.m.*.X.o. .t 9 9 a q.D.D.g.*.o.X. .t 9 9 #.I.XXXX).Z.d.d.8.s 0 0 i 8.d.m.m.B.A.Z.M.s.=.@.e # & & O ",
"$X_ 3 @ w @.=.>.d.d.d.m.N.A.A.M.*.X.o. .t 9 9 p f.D.D.g.*.o.o. .t 9 9 d I.oXoX).C.g.g.:.i 0 0 i =.m.d.m.B.A.B.m.>.=.@.u - & o * ",
"$X_ 3 - e @.5.;.d.d.g.M.Z.F.F.Z.q.;.q.*.#.a p %.l.Y.L.D.q.*.:.:.%.d +.e.E..X.XR.g.6.:.$.a t t O.9.V.V.B.A.A.Z.M.9.5.,.w - o & O ",
"*X_ 3 + k C 3.6.9.m.m.Z.K.L.W.!.T.W.~.F.l.0.0.l.T.(.(.^.H.A.J.H.~._.'.'.~.)./.H.&.s i a .. . .*.l.U.U.F.A.A.C.j.6.3.,.j @ & * O ",
"$X_ 2 : j C 3.6.m.V.B.A.!.W.W.{.(.@X(.(.F.A.S.L.(.XXXX}.^.R.R.[.        [.~.~.v.d q q y  .o.o.:.F.~.~.U.F.A.N.z.u.1.C k : o o o ",
"$X_ 3 : j C 3.6.k.V.V.A.L.W.W.W.(.@XoX(.L.A.A.F.(.@XXX}./.E.T.[.        [.~.~.v.d q 9 t  .o.X.:.G.~.~.U.F.A.S.k.6.3.V j @ o o & ",
"=X%XY 5 n C C 1.6.f.V.Z.H.L.L.!.(.(.(./.L.F.F.Y.^.)././.^.^.^.[.+X    |.~.U.U.l.#.s s p $.:.*.q.F.R.E.U.A.N.l.a.3.C Z n 7 3 1 1 ",
"9X5X&X' ! n j z ,.4.u.f.V.V.V.J.T.~.W.T.Y.Y.U.K.D.A.S.K.^.(.{.{.W.[.[.T.J.V.V.j.0.&.&.0.f.l.j.S.F.H.F.F.C.z.a.3.M h n ! ' [ W Y ",
"    8X=X) P 6 , C 1.4.6.9.9.9.m.A.F.F.L.Y.R.R.K.M.q.s.Z.^..X.X(.Y.G.D.Z.j.q.s.q.q.q.j.j.G.U.U.H.F.F.A.A.V.f.u.,.h 6 P ` =X;X[ ( ",
"      >X` K = - F 1.3.6.7.;.9.9.B.D.D.F.T.R.~.U.g.;.;.V.).XXXX).L.Z.Z.M.s.;.;.s.M.M.M.N.U.~.~.U.F.D.A.B.k.f.u.V $ = J ' 3X5X$X' ",
"      8X%XE H 5 F C ,.3.8.8.7.9.M.B.B.D.U.E.T.H.d.>.;.M.W.(..X).D.M.B.m.d.9.s.d.M.M.N.A.U.R.~.U.S.A.N.l.a.e.2.Z 5 H E $X8X  -X} ",
"        >X%X_ W m F z f 3.8.8.7.g.j.N.N.A.H.K.S.j.q.w.N.L.^.^.Y.Z.M.m.M.V.V.V.V.m.m.d.V.D.Y.Y.F.Z.V.k.a.<.Z S S ~ _ $X:X    8X3X",
"          2X;X} U l , j ,.3.8.6.q.q.q.q.V.V.N.V.N.M.B.A.D.L.L.D.V.m.m.V.B.!.K.Z.d.9.9.m.D.F.F.F.V.k.z.e.M h b ~ } -X2X          ",
"              ;X/ 3 : , d 3.5.5.0.q.>.q.g.g.g.V.B.Z.Z.Z.A.B.B.B.m.m.m.V.L.R.R.H.d.;.9.9.N.D.F.S.V.g.f.2.h : 5 W ;X              ",
"              5X_ K 1 < z ,.3.3.&.:.=.:.s.d.d.g.B.D.A.Z.B.B.B.M.d.m.9.V.L.!.R.K.m.;.9.9.z.S.l.z.a.u.u.B > * 4 / 2X              ",
"                $X/ Y I F N C C V #.,.,.6.s.i.f.V.B.Z.B.M.V.M.M.d.9.9.V.H.U.!.G.m.9.d.i.u.r.r.r.2.2.<.M ; * 3 ( 3X              ",
"                3X&X%X) m j j j k e e f 3.i.6.s.m.V.M.M.M.m.M.g.d.9.9.9.V.G.J.V.V.m.m.a.<.N N N M v k h : * 3 ( 3X              ",
"                  9X7X&XI ; : : : - : r ,.4.4.6.f.g.g.m.g.m.g.d.9.9.;.9.k.k.k.V.Z.Z.A.a.v ; ; ; ; : ; : O * 3 ( 3X              ",
"                      3XT 1 = * * * * 5 C 3.3.4.i.d.d.s.s.s.f.s.;.-.-.7.7.f.a.k.V.A.Z.u.< & * * & & & O * = 5 ( :X              ",
"                      5X) H 1 2 2 2 2 5 C <.1.1.5.6.6.6.u.:.u.6.5.$.&.5.4.u.e.u.z.z.l.r.b 1 1 1 * o * O @ 6 b ~ =X8X            ",
"                        $X) / / / / / Q F z z M V V V d V V V d f C p f B B B A A y.A D W ( ( R 1 O O # h M n ! | &X,X          ",
"                          2X3X3X>X2X4X$XP @ - ; > > , > > > > > > > # > > > > > < $ $ m *X5X4X$X7 o * h 2.p.e.D b L _ :X        ",
"                                      :XK X o o o o o o o o o o & o & o o o o o X X X J :X    :XJ o O r p.B.z.+.# = R &X        ",
"                                      :XJ X o o o o o o o o o o o o o o o o o o o X X J :X    :XJ X O j p.B.f.A # = R &X        ",
"                                      7X) J J L L L L L L L L L L L L L L L L L L J J ` 7X    7X_ J P m y.e.y.D I T [ >X        ",
"                                        7X-X;X:X:X:X:X:X:X:X:X:X:X:X;X;X:X:X:X:X:X:X-X7X        7X;X=X} n h b Q Q.7X8X          ",
"                                                                                                      &X8 & 1 / 4X              ",
"                                                                                                      &XH & 2 / 4X              ",
"                                                                              9X3X-X-X7X              4X_ T ( $X9X              ",
"                                                                              3X( J H '                                         ",
"                                                                              -X7 . . R                                         ",
"                                                                              ;XH . . R                                         ",
"                                                                              8X[ Y Y }                                         ",
"                                                                                                                                ",
"                                                                                                                                "
};
