/* XPM */
static char *_2a66af1b8804ebcddb80ba686d96c78pIEYdXWfky8AxRaQ[] = {
/* columns rows colors chars-per-pixel */
"64 64 165 2 ",
"   c None",
".  c #010101",
"X  c #060C04",
"o  c #060509",
"O  c #0B0B0D",
"+  c #090E06",
"@  c #110604",
"#  c #150A06",
"$  c #190B05",
"%  c #1A0D09",
"&  c #0B1206",
"*  c #0E1609",
"=  c #0E1809",
"-  c #11170C",
";  c #111A0A",
":  c #0E0E11",
">  c #0E1014",
",  c #121114",
"<  c #17191B",
"1  c #1B1B1E",
"2  c #23120B",
"3  c #2A140C",
"4  c #211D0D",
"5  c #241A18",
"6  c #341B12",
"7  c #3A1F13",
"8  c #15210C",
"9  c #1A290E",
"0  c #1D2D11",
"q  c #1F3112",
"w  c #22271F",
"e  c #2A2312",
"r  c #3D2115",
"t  c #223313",
"y  c #263A16",
"u  c #293C17",
"i  c #27331D",
"p  c #293C19",
"a  c #34381A",
"s  c #1E1E20",
"d  c #1F2022",
"f  c #242426",
"g  c #2D2321",
"h  c #252922",
"j  c #262629",
"k  c #2A2B2D",
"l  c #312724",
"z  c #2D3C22",
"x  c #2E332D",
"c  c #37302D",
"v  c #2A2C30",
"b  c #302E32",
"n  c #343436",
"m  c #3C3634",
"M  c #363B33",
"N  c #373738",
"B  c #3B3B3D",
"V  c #46281B",
"C  c #4C2A1C",
"Z  c #422519",
"A  c #512D1E",
"S  c #47311E",
"D  c #4D2D22",
"F  c #552E20",
"G  c #4B3224",
"H  c #4E3820",
"J  c #45332C",
"K  c #553120",
"L  c #5C3422",
"P  c #463E3D",
"I  c #433531",
"U  c #603624",
"Y  c #633C26",
"T  c #673B28",
"R  c #6B3D29",
"E  c #2D431A",
"W  c #32461C",
"Q  c #344C1E",
"!  c #3D401C",
"~  c #36501F",
"^  c #354F20",
"/  c #3C4D21",
"(  c #365020",
")  c #3A5522",
"_  c #3E5B24",
"`  c #3F433E",
"'  c #3F6025",
"]  c #4E4623",
"[  c #444C22",
"{  c #494F24",
"}  c #554324",
"|  c #5D4126",
" . c #584927",
".. c #5F4628",
"X. c #564E28",
"o. c #584A28",
"O. c #445324",
"+. c #4B5425",
"@. c #415E25",
"#. c #4F5728",
"$. c #4E5D29",
"%. c #535C2A",
"&. c #5A5D2C",
"*. c #42463F",
"=. c #604027",
"-. c #624428",
";. c #6E412B",
":. c #6E4C2D",
">. c #654A2A",
",. c #74432D",
"<. c #79462E",
"1. c #734C2E",
"2. c #63532C",
"3. c #7A4730",
"4. c #764E30",
"5. c #7E4B32",
"6. c #735230",
"7. c #426026",
"8. c #466528",
"9. c #4B6429",
"0. c #476A2A",
"q. c #4A6A2A",
"w. c #56622C",
"e. c #3F3F40",
"r. c #444445",
"t. c #474749",
"y. c #4B4B4C",
"u. c #515153",
"i. c #5E5756",
"p. c #565658",
"a. c #5E5E5F",
"s. c #66605F",
"d. c #5F6062",
"f. c #616162",
"g. c #666668",
"h. c #67686A",
"j. c #706B6A",
"k. c #6F7070",
"l. c #6F7070",
"z. c #757576",
"x. c #7B7B7B",
"c. c #804B32",
"v. c #814B32",
"b. c #814A32",
"n. c #804A31",
"m. c #804C32",
"M. c #814C33",
"N. c #7F7F80",
"B. c #878483",
"V. c #838384",
"C. c #858586",
"Z. c #848484",
"A. c #878789",
"S. c #878788",
"D. c #89898B",
"F. c #8B8B8C",
"G. c #8A8A8B",
"H. c #969696",
"J. c #979899",
"K. c #9A9A9A",
"L. c #A09E9E",
"P. c #A3A3A4",
"I. c #A4A4A4",
"U. c #A7A7A8",
"Y. c #AAAAAA",
/* pixels */
"                                                                                                                                ",
"                                                                                                                                ",
"                                                                                                                                ",
"                                                                                                                                ",
"                                                                                                                                ",
"                                            P.D.D.F.F.D.F.F.F.F.F.F.F.G.F.F.F.D.D.P.                                            ",
"                                            a.j j k k l k k k l k k k k k k k j j a.                                            ",
"                                          U.m . . . o o . . o o o o . o o o . . . m U.                                          ",
"                                      U.Y.B.m $ % % % 2 2 2 2 2 2 2 2 2 2 2 % $ $ m B.U.U.                                      ",
"                                    D.g.g.i.J 7 r Z V C C C C C C C C C C Z r r r J i.g.g.F.                                    ",
"                                    p.< < g D L L U ;.;.;.;.;.;.;.;.R ;.;.;.L L L D e s < p.                                    ",
"                                  L.m . . 2 K ,.;.,.3.M.M.5.M.M.v.v.v.v.m.5.,.;.;.K 2 . . m L.                                  ",
"            K.V.C.C.C.C.C.C.C.A.S.j.J 3 3 r U ,.,.,.5.m.m.m.m.m.v.v.m.m.m.5.,.,.,.Y r 3 3 J j.A.S.A.C.C.B.C.C.Z.C.K.            ",
"            z.r.r.r.r.r.r.r.r.r.r.P G C C K ;.3.,.3.5.5.5.5.5.M.v.v.5.5.5.5.3.<.3.R K C C G P r.r.r.r.r.r.r.r.r.r.l.            ",
"            y.O , , , , , > , , > 5 A U U T ,.5.5.5.5.5.M.5.5.5.v.5.5.5.5.5.5.5.5.,.T U L D 5 > , , , , > , , : O y.            ",
"            B . . . . X X + + + X 4 H >.-.>.3.5.5.m.5.5.5.5.c.c.5.5.v.5.5.5.5.5.c.3.,.R R L 4 + + + X X X X . . . B             ",
"            B . . . 8 t 9 t u u E W +.%.X.2.1.m.c.5.5.5.5.M.5.5.5.c.5.c.5.c.5.5.5.5.<.<.<.-.! E u u t 0 q 8 X . . N             ",
"            N . . X t Q W Q ) _ @.@.9.9.w.w.6.c.M.5.c.c.c.c.c.c.c.c.c.c.m.c.c.5.c.c.c.3.5.:.#._ _ ) Q W W t X . . N             ",
"            N . . X u ( ~ ) 7.0.8.9.9.9.9.w.6.c.m.5.5.5.c.c.c.c.c.c.c.c.c.c.5.c.c.c.c.c.c.1.w.8.0.7.) ~ ) y X . . N             ",
"            g.n N M z u u W _ 8.8.8.0.0.q.w.6.c.M.3.1.:.:.:.1.:.1.:.:.:.1.:.:.:.:.:.:.:.1.2.$.8.8.@.E y y z M N N g.            ",
"                  F.M X + 8 W _ ) _ 8.q.q.w.6.m.n.1.X.{ { { O.{ { { O.{ { { O.{ { { { { O.O.O.) _ W 8 + X M F.                  ",
"                    B . . + p ^ ~ ) 7.q.0.w.6.c.5.:.{ ^ ( ^ ^ ( ( ( ^ ^ ^ ( ^ ^ Q ~ ( ( ( ( Q ( ( y & . . B                     ",
"                    B . . + p ( ( _ 8.q.0.w.6.c.5.:.O.Q ( ( ( ( ( ^ ( ( ( ( ~ ( ^ ( ( ( ( ( Q Q ^ p - . . r.                    ",
"                    B . . & a { [ O.9.0.0.w.:.<.<.>.{ ( ( ( ( ( ( ( ( ( ( ^ ( ( ( ( ( ( ~ Q p y t z r.y.t.z.                    ",
"                    B . . # S =.Y o.9.q.q.w.>.R R -.[ Q ( ( ( ( ( ( ~ ( ( ( ( ( ( ( ( ( ( E ; X X M H.                          ",
"                    B . . % C R R -.%.0.0.$. .T R } [ ~ ( ( Q Q Q Q ( ( ( ( ( ( ( ( Q Q Q y + . . B                             ",
"                    B . . % A R R -.$.8.0.$.o.Y Y } [ ) ) Q W p p E ~ ) ) ( _ ~ ) ~ W p E t X . . B                             ",
"                    B . . % A R R ..+.' 7.O.{ } } ] @._ @.( t 0 9 y ( _ @.@._ @.@.( t 0 9 8 X . . B                             ",
"                    B . . % A R T | { ( ) ( / / ~ O.7.9.0.( 8 X X 8 ~ q.8.8.8.8.q.~ 8 . + . . . . B                             ",
"                    B . . % C R R | [ ^ ^ / ^ ^ Q _ 8.q.q.( ; X . 8 ~ q.q.q.q.q.q.( 8 X . o . . . B                             ",
"                    B . . % C R R | } [ { [ / ^ Q ) 8.0.q._ t ; ; t _ q.q.q.q.q.0._ t 8 8 = . . . B                             ",
"                    B . . # A R R Y } } } ] / ^ ~ ) 8.q.q.8.W u E W @.q.q.q.q.q.q.@.Q u E t X . . B                             ",
"                    N . . # A R ;.T T Y =.} / ( ~ ) 8.q.q.8.@.@.@.7.8.q.q.q.q.q.q.9.8.@.@.W & . . B                             ",
"                    p.1 d l G K K L T R ;.L [ ( ~ ) 8.q.q.q.q.q.q.q.q.q.q.q.9.q.q.q.q.q.q.~ ; . . B                             ",
"                    H.z.z.s.J 6 6 Z L R R } [ ~ ( ) 8.q.q.q.q.q.q.q.q.9.q.q.q.q.q.q.q.q.q.~ ; . . B                             ",
"                          G.m @ @ 3 K R R =.[ ( ( ) 7.q.q.q.q.q.q.q.q.q.8.q.q.q.q.q.q.q.q._ ; . . B                             ",
"                          Y.m . . % A ;.R =.[ ( ( ) 8.0.9.q.q.q.q.q.q.q.q.q.q.q.q.q.q.q.q.( * . . B                             ",
"                            d.k k c G K K S [ Q ( ) 8.q.q.q.q.q.q.q.9.q.q.q.q.9.q.q.9.q.q.Q ; . . B                             ",
"                              J.J.x.I 2 3 e W ) ( ) 8.0.q.q.q.q.q.q.q.q.q.q.q.0.q.q.q.q.q.) ; . . B                             ",
"                                  I.I . . - p ( ( ) 7.q.q.q.q.q.q.q.q.q.q.q.q.q.q.q.q.q.q.( * . . B                             ",
"                                    B . . & u ( ( ) 8.0.q.0.q.q.q.q.q.q.q.q.q.q.q.q.q.q.q.( ; . . B                             ",
"                                    B . . & p ( ( ) 7.8.8.7.) ^ ~ ~ ( ( ( ( ( ( _ ) @.9.8.Q * . . B                             ",
"                                    B . . & p ( ( ( ) ) _ W 9 * * ; ; ; * - = * * 9 Q _ _ E & . . B                             ",
"                                    B . . & p ) ( ( ( ( Q u & . . . . . . . . . . + u ^ ( p & . . B                             ",
"                                    N . . & y ( ( ( ^ Q Q p = o o . . . . . . . . & y ^ ^ y * . . e.                            ",
"                                  P.n . . & p ( ( W p q q i x n N j O . . . & ; ; ; 0 t t i x n n a.                            ",
"                      Y.Y.        C.j . . & E ) ) E ; X X h d.N.N.a.< . . + 0 E E t ; X X f f.x.x.D.P.  Y.                      ",
"                    Y.J.J.K.J.J.J.z.f . . + y Q ^ p = . o x x.I.P.x.j . . + y ( ( p - X . v x.P.K.K.J.H.H.Y.                    ",
"                    Y.J.J.K.J.K.K.x.f . . X q E E y 0 s 1 ` N.L.L.x.f . . + q E E p w 1 1 B x.L.L.K.K.J.H.Y.                    ",
"                    I.J.K.K.K.L.K.z.f . . . ; 9 9 i e.y.y.a.S.L.K.z.f . . X ; 9 9 i *.y.y.s.S.K.K.K.K.K.J.I.                    ",
"              U.U.U.K.K.K.K.J.K.K.x.f . . . o X o f g.C.Z.S.H.K.L.z.f . . . . X . h g.Z.Z.S.H.K.K.K.K.K.K.L.I.U.U.              ",
"              J.J.J.K.K.K.K.K.L.J.x.n O O : O O O v N.L.L.K.K.L.L.x.n O O : : O O n x.L.L.K.K.K.K.K.K.K.K.K.K.J.J.              ",
"              J.H.K.K.K.J.K.K.K.L.Z.u.M n n n n n u.S.L.L.K.K.K.K.C.u.N M N N n n u.Z.K.L.K.K.K.K.K.K.K.K.K.K.J.J.              ",
"              J.K.H.K.K.K.K.K.K.K.F.l.a.f.f.s.s.a.l.F.K.K.K.K.K.K.F.l.d.d.s.d.d.a.l.F.K.K.K.K.K.J.K.K.K.K.K.J.J.J.              ",
"              J.H.K.J.K.K.K.K.K.K.H.F.F.D.D.G.G.D.F.J.K.K.K.K.K.K.J.F.D.F.G.S.F.F.F.J.K.K.K.K.K.K.K.K.K.K.K.K.J.J.              ",
"              I.I.I.L.K.K.K.K.K.K.K.L.K.K.K.K.K.K.K.K.K.K.K.K.K.K.K.K.K.K.L.K.L.K.K.K.K.K.K.K.K.K.K.K.K.K.K.I.I.I.              ",
"                    I.J.K.K.K.K.K.K.K.K.K.K.K.L.K.K.K.K.K.K.K.K.K.K.K.K.K.K.K.K.K.K.K.K.K.K.K.K.K.K.K.K.J.I.                    ",
"                    U.J.J.K.K.J.K.J.K.K.K.K.H.K.K.K.K.H.K.J.K.J.K.J.K.J.K.K.K.K.J.K.K.K.K.J.K.K.K.K.J.J.J.U.                    ",
"                    Y.J.H.K.H.K.K.K.J.J.J.K.K.J.J.K.K.K.K.J.J.K.J.K.J.K.J.K.J.K.J.K.K.J.K.J.K.H.H.K.K.J.J.Y.                    ",
"                      I.I.I.I.I.I.I.I.U.I.I.I.I.I.I.I.I.I.I.I.U.I.I.I.I.I.I.I.I.I.I.I.U.I.I.I.I.I.I.I.I.I.                      ",
"                                                                                                                                ",
"                                                                                                                                ",
"                                                                                                                                ",
"                                                                                                                                "
};
