/* XPM */
static char *_1e626ce29e04299cd2801eafb24a4d5VNPcC5x0oLR6tzwI[] = {
/* columns rows colors chars-per-pixel */
"64 64 171 2 ",
"   c None",
".  c #010101",
"X  c #0C0303",
"o  c #0C0C0C",
"O  c #110606",
"+  c #140907",
"@  c #130B0B",
"#  c #1E100D",
"$  c #161616",
"%  c #1E1312",
"&  c #1C1C1C",
"*  c #211312",
"=  c #291715",
"-  c #2B1814",
";  c #251A19",
":  c #2C1A18",
">  c #321C1A",
",  c #28201F",
"<  c #1F2020",
"1  c #222222",
"2  c #2E2E2E",
"3  c #3C2623",
"4  c #3E2826",
"5  c #312D2D",
"6  c #353535",
"7  c #3C3635",
"8  c #3C3C3C",
"9  c #432B29",
"0  c #4B2D2A",
"q  c #4C302C",
"w  c #453534",
"e  c #4D3432",
"r  c #403E3E",
"t  c #4E3E3E",
"y  c #533532",
"u  c #5A3734",
"i  c #543937",
"p  c #5C3936",
"a  c #533E3B",
"s  c #5E3D38",
"d  c #623D37",
"f  c #633F3A",
"g  c #56413F",
"h  c #5B423F",
"j  c #66413D",
"k  c #6A423E",
"l  c #444444",
"z  c #4D4D4D",
"x  c #564140",
"c  c #584442",
"v  c #5E4C4B",
"b  c #565656",
"n  c #5C5251",
"m  c #5C5C5C",
"M  c #674743",
"N  c #6F4642",
"B  c #6A4A45",
"V  c #604E4D",
"C  c #6A4C49",
"Z  c #714743",
"A  c #734944",
"S  c #734E4A",
"D  c #6E514E",
"F  c #75514D",
"G  c #655655",
"H  c #6E5551",
"J  c #675856",
"K  c #6B5957",
"L  c #645B59",
"P  c #6B5F5F",
"I  c #735652",
"U  c #795552",
"Y  c #705B57",
"T  c #7A5855",
"R  c #765E5B",
"E  c #7D5E5B",
"W  c #7B615E",
"Q  c #626262",
"!  c #6E6362",
"~  c #696969",
"^  c #706664",
"/  c #7B6462",
"(  c #736967",
")  c #796967",
"_  c #736E6D",
"`  c #7C6C6A",
"'  c #7C706D",
"]  c #6F7070",
"[  c #747474",
"{  c #7C7574",
"}  c #7D7B7B",
"|  c #816663",
" . c #836C69",
".. c #88706D",
"X. c #837573",
"o. c #897673",
"O. c #817877",
"+. c #887977",
"@. c #837D7C",
"#. c #8B7D7C",
"$. c #868484",
"%. c #898685",
"&. c #898887",
"*. c #898988",
"=. c #8A8888",
"-. c #8A8A89",
";. c #898A8A",
":. c gray54",
">. c #8B8B8B",
",. c gray55",
"<. c #8D8D8D",
"1. c #8F8D8D",
"2. c #8F8F8F",
"3. c #8B8B8B",
"4. c #938684",
"5. c #938B8A",
"6. c #908F8E",
"7. c #958D8C",
"8. c #958E8E",
"9. c #948D8C",
"0. c #90908F",
"q. c #98908F",
"w. c #909090",
"e. c gray57",
"r. c #909190",
"t. c #929292",
"y. c #939393",
"u. c #939494",
"i. c #959595",
"p. c gray59",
"a. c #949494",
"s. c #999392",
"d. c #999393",
"f. c #9A9393",
"g. c #9B9494",
"h. c #9D9796",
"j. c #9B9392",
"k. c #9E9897",
"l. c gray60",
"z. c #9F9998",
"x. c #9C9A9A",
"c. c gray61",
"v. c #9D9D9D",
"b. c #9F9F9F",
"n. c gray62",
"m. c #9C9B9B",
"M. c #A09F9E",
"N. c #A19E9E",
"B. c #9FA0A0",
"V. c gray63",
"C. c #A2A0A0",
"Z. c #A2A1A0",
"A. c gray64",
"S. c #A2A2A2",
"D. c #A4A2A2",
"F. c #A3A4A4",
"G. c #A4A4A4",
"H. c #A5A5A5",
"J. c #A7A5A5",
"K. c #A5A6A6",
"L. c gray65",
"P. c #A7A7A7",
"I. c #A6A7A7",
"U. c #A5A5A5",
"Y. c #A9A7A7",
"T. c #A7A8A8",
"R. c gray66",
"E. c #A9A9A9",
"W. c #AAAAAA",
"Q. c gray67",
"!. c #A9AAAA",
/* pixels */
"                                                                                                                                ",
"                                                                                                                                ",
"                                U.[ z 8 8 8 8 8 8 8 8 8 8 8 8 8 8 8 8 8 8 8 8 8 8 8 8 8 8 ~                                     ",
"                                *.l o . . . . . . . . . . . . . . . . . . . . . . . . . . 6                                     ",
"                                ;.l o . . . . . . . . . . . . . . . . . . . . . . . . . . 6                                     ",
"                              M.~ g ; @ O + + + + + + + + + + + + + + + + + + + + + + O X w 6.                                  ",
"                    Q 6 6 6 6 7 w e y y y y y y y y y y y y y y y y y y y y y y y y y u y e 7 6 6 6 6 l Q t.                    ",
"                    6 . . . . . - 0 k A A Z A Z Z Z A A Z Z A A A Z A A A A Z Z A A A A A y @ . . . . . 2 [                     ",
"                    8 . . . . . = 0 f A A Z Z Z Z A Z A Z Z A A Z Z Z Z Z Z Z Z Z Z Z A A y + . . . . . 2 [                     ",
"                  t.l & & $ @ # 3 y f Z Z Z Z N N N N N N N N N Z N Z Z N N Z N Z N Z Z A u - O O @ $ 2 r ~ b.                  ",
"            Q 6 6 l ~ } _ L i q u f k N Z N N N N N N Z N N Z N N Z N N N Z N N N Z N Z A k y 9 q a m Q m z 8 z } !.            ",
"          !.6 . . 1 %.!.M.#.F j k N N N N Z N N N Z N N N N N N N N N N N N N Z N N N N k k j j j Y @.%.] l o o z 2.            ",
"          l.l o o 8 %.K.g.#.F f k k N N N N N N N N N Z Z N N N N N N N N N N N N N N N N N j j j Y +.$.] z < < z $.            ",
"    b.%.%.[ b l l Q 0.D.g.o.D f j N N Z N Z N N N N N N N N N Z N N N N N Z N N N N N N N N j f j H } $.} Q z l b Q } t.        ",
"    m < < 8 [ 2.*.2.b.Z.d.+.D f j k N Z Z N N Z N N N N N N N N Z N N Z N N N N Z N N Z N N j f j H O.&.$.} } ~ b r 2 l }       ",
"    8 . . 1 }   !.T.K.Z.d.+.D d j M N N N N N N N Z N N N N N N N N N N N N Z N N N N N N k j j j H O.*.3.3.3.} b 2 . $ Q S.    ",
"    8 . . 1 } Q.R.P.P.C.d.+.C f k N N N N N N N N N N N Z N A N k Z Z A A k k Z k k A k k k j j j D } *.>.>.3.} b 2 o $ m U.    ",
"    8 . . 1 } !.P.U.K.C.d.+.I f f N N N N N N N Z N N N N N N N A A k k Z Z A A k | k A k j j j j H O.-.;.3.3.} b 2 . $ Q K.    ",
"    8 . . 1 } Q.R.P.P.C.d.o.H f f j N N N N N N N N Z N N Z N N k A A Z k A Z k Z Z k A k k j j j H } *.*.>.>.} b 2 . $ Q U.    ",
"    8 . . < } U.C.B.B.x.8.X.C f N N N N N N N N N N N N N N N N k Z k Z A k A k Z k k F k k j j j H +.0.r.r.t.@.m 6 o $ Q K.    ",
"    8 . . & ] p.a.y.y.w.%.` C f f N N N N Z N N N Z N N N N N Z A | d f A A k A Z Z k A k k k k j Y %.m.m.M.M.>.Q 6 . & Q U.    ",
"    8 . . & ~ 2.2.,.,.&.@.` C f f N N N N N N N N N N N N N N N Z k Z Z k A A k k A k Z A k k k j W 5.D.D.U.K.0.~ 6 o $ Q D.    ",
"    8 . . & ~ 2.,.>.&.%.@.` C f N N N N N N N N N N N N N Z N N Z Z Z Z A k k A A k A Z k k j d j Y 0.U.K.K.K.a.~ 8 . $ Q D.    ",
"    8 . . & Q 2.,.>.*.&.@.) C f f j N N N N N Z N Z N N N N N N Z f Z Z A k A A k Z A k k k j h j W 7.U.K.K.R.a.~ 8 o $ Q K.    ",
"    8 . . & Q 2.3.*.*.&.@.) C f k N N N N N N N N N Z N N N N N Z Z f | d Z Z f Z k A N N k j j j R 7.U.K.Y.K.a.~ 8 . $ Q U.    ",
"    8 . . & ~ 2.2.*.*.&.@.) C f f N N N N N Z N N N N N N N N Z f Z Z Z Z Z Z Z N Z N Z A k j j j R 7.U.K.K.R.t.~ 6 o & Q U.    ",
"    8 . . & ~ 2.2.*.>.&.@.) C f f N N N N N N N N N N N N Z N Z A Z Z Z Z Z Z Z k A A k N N j j j R 7.K.K.K.R.a.~ 6 o $ Q D.    ",
"    8 . . & Q 2.>.>.*.%.@.) C d j f N N N N Z N N N Z N N N N Z Z Z f A Z f Z Z Z A k k k k j j k R 7.K.K.K.K.y.~ 8 . $ Q K.    ",
"    8 . . & Q 2.>.>.>.&.@.) C f f f j N N N N N N N N N N N Z Z Z d f Z Z Z Z Z Z k k j j j d h j R 9.U.K.K.Y.y.~ 6 . & Q U.    ",
"    8 . . & ~ 2.2.>.>.&.@.) C f f f f f N k N N N Z N N A A A A Z | Z Z Z f Z Z Z k k j d j d j j W 7.K.K.K.Y.t.~ 8 o $ Q D.    ",
"    8 . . & ~ t.2.>.2.*.@.` C f f f f j k N N N N N N N S F F F A | f Z Z Z f A k k j j j d j d j R 7.K.K.K.K.u.~ 8 . $ Q D.    ",
"    8 . . & [ p.p.p.p.w.%. .C d f f f f f k k k M k k S W  . . .| | | | A f Z f k k d d d j d j j R 7.U.K.K.!.u.~ 6 o $ Q K.    ",
"    8 . . < } K.B.B.B.x.8.X.C d d j d j f f j j j j f F #.h.d.d.4.4...| Z f f j j j d s j f s j j R 5.J.F.I.I.u.~ 8 o $ Q F.    ",
"    8 . . 1 } P.L.A.A.N.d.#.I M j M M M N M M B B M M / d.T.T.T.Y.z.4...F N M M C M M M M k M M C W 9.V.V.F.F.2.~ 6 . $ Q K.    ",
"    8 . . & [ S.N.v.c.l.8.#.) Y K Y Y Y K Y Y Y W W / X.h.T.P.K.Y.z.q.o.` W R R Y Y Y Y Y Y Y Y R  .5.x.v.v.v.;.Q 6 X $ Q K.    ",
"    8 . . & ] p.p.p.p.t.1.%.{ ` ' ' ' ' ' ' ' X.@.#.#.4.b.!.T.P.Y.J.N.q.4.#.X.' ' ' ` ` ' ' ' ' ` } 1.a.u.p.p.$.m 6 . & Q T.    ",
"    8 . . & ~ 2.1.1.1.,.>.&.$.%.$.$.$.$.$.$.$.=.d.z.z.b.A.T.P.T.R.L.A.N.x.p.1.%.$.$.$.%.%.$.$.%.$.=.=.<.<.2.2.} m 2 . $ Q F.    ",
"    8 . . & ~ 2.,.;.;.;.*.$.@.} @.} O.@.@.@.@.=.b.K.K.b.2.$.%.%.$.;.t.c.S.N.9.%.$.@.O.} O.} } } } @.*.=.*.<.;.} b 2 o $ Q F.    ",
"    8 . . & ~ ,.1.;.;.$.@.{ P G G G L K W W W X.d.T.!.2.b 8 8 8 r z Q $.l.N.#. ./ R K G G G G G J ^ @.=.;.;.<.} b 2 o $ Q F.    ",
"    8 . . & ~ 1.,.;.;.*.@.( v a a a a h M C S | d.!.!.$.6 o o o o < l ] p.x.o.T U C h a a a a x x G } =.;.<.<.} b 2 . $ Q P.    ",
"    8 . . & Q 2.>.>.>.*.} ! c e q e e i M N N W j.    +.1 . . . . o 8 ~ d.k...U S k i e e e e e i V { ;.;.,.;.} b 2 . $ Q F.    ",
"    8 . . & ~ 2.>.>.>.$.@.! x q e y y p f N N T o.4.N...r 1 1 1 < 2 z ~ %.4.| S A k p i y y e y w v { ;.;.;.,.} m 2 o $ Q F.    ",
"    8 . . & Q 2.>.>.>.$.} ^ x q i f f k k N N S | | U | { @.} } @.O.' ` W T S Z N N k k j s e e e v { ;.;.,.,.} b 2 . $ Q F.    ",
"    8 . . & ~ 2.>.>.>.&.} P x y p j N N N N N N k f d | j.    Q.Q.N.4. .S N Z N N N Z Z Z j y e e v { >.;.>.>.} b 2 o $ Q P.    ",
"    8 . . & Q 2.,.:.,.$.@.! x e p f k N N N N N Z k k | j.  !.!.Q.C.4. .F N N N N N N Z Z j y e e v { >.;.>.>.} b 2 . $ Q F.    ",
"    8 . . & ~ 2.,.:.;.%.@.P x y p f N N N Z N N Z k k | #.d.q.q.q.4.o.| S Z N N N Z N Z Z j y e e V { ;.>.>.>.} b 6 . & Q A.    ",
"    8 . . & Q 2.,.;.;.%.} P x e p j N N N N N Z Z Z Z S T | E E E T U S Z Z N N N N N Z Z j y e e v { ;.;.>.>.} b 2 . & Q A.    ",
"    8 . . & ~ 2.,.;.;.$.@.! x e p j N Z N N N N Z k Z k k k Z k N N N N Z N N N N N Z N Z j u e e v { ;.>.>.>.} m 2 . $ Q P.    ",
"    8 . . & Q 2.3.*.3.&.} ! g e p j k N N N N N N N N N N N N N N N N Z N N N N N Z N N Z f e q e v { >.;.,.,.} b 2 o $ Q F.    ",
"    8 . . & ~ 2.2.*.;.$.} ! g y i j N N N N N N N Z N N N N N N N N N N N N Z N N N N Z Z M y e e v { ;.;.,.,.} b 2 . $ Q F.    ",
"    8 . . & Q 2.2.3.3.%.O.^ g e p j N N N N N Z N N N Z N N N N N N N N N N N N N N N Z Z M y e e v { ;.;.,.,.} b 2 . $ Q F.    ",
"    8 . . & ~ 3.*.*.3.%.} ! g e p j j N N N N N N N N N Z N N N N N N N N Z N N N N N k N f y e e v { ;.;.;.,.} b 2 o $ Q P.    ",
"    8 . . & ~ 2.2.*.*.&.O.! x e p s j j k N N N Z N Z N N N Z Z N N N N Z Z N N N N f f j f y e e V { ;.:.:.,.} b 2 . $ Q F.    ",
"    8 . . & ~ 2.2.3.3.*.@.! x e y i p s k N Z Z N Z Z Z Z Z Z Z Z Z N Z Z Z Z Z Z N f s s i y e e V { ;.:.1.,.} b 2 o $ Q A.    ",
"    8 . . & ~ 2.2.>.2.*.@.^ c e e y e p j Z Z Z Z Z Z A Z Z A Z A A Z Z Z Z Z Z Z N p y y y e q i V } ;.1.1.1.} b 2 . $ Q A.    ",
"    m & & 6 Q [ [ [ [ ~ ! n w 3 3 4 4 9 y p p p s p p p p p p p p p p p p p p p p i 9 4 4 4 4 9 4 t Q [ [ [ [ ~ b r 2 8 }       ",
"    c.} $.~ z 8 8 r 8 8 7 5 ; * * * * = : > > > > > > > > > > > > > > > > > > > > : * * * * * * * 1 6 8 r r r l b Q [ ,.        ",
"          p.8 o o $ o $ o o X . . . . . X X X X X X X X X X X X X X X X X X X X X X . . X . . . X . o $ $ o $ 1 b } Q.          ",
"          !.6 . . . . . . . . . . . . . . . . . . . . . . . . . . . . . . . . . . . . . . . . . . . . . . . . $ z ,.            ",
"            Q 6 6 6 6 6 6 6 6 6 6 6 6 6 6 6 6 6 6 6 6 6 6 6 6 6 6 6 6 6 6 6 6 6 6 6 6 6 6 6 6 6 6 6 6 6 6 6 6 z } Q.            ",
"                                                                                                                                ",
"                                                                                                                                ",
"                                                                                                                                ",
"                                                                                                                                "
};
