/* XPM */
static char *_4ea308b7bbb42dab2b5ce86dfab93e03ilOD5UtdoAoQ5DM[] = {
/* columns rows colors chars-per-pixel */
"64 64 132 2 ",
"   c #4D2931",
".  c #542D35",
"X  c #563239",
"o  c #62393E",
"O  c #643B42",
"+  c #6A3E44",
"@  c #624044",
"#  c #6E4348",
"$  c #6B494C",
"%  c #71454A",
"&  c #78474F",
"*  c #754B4F",
"=  c #78484F",
"-  c #794750",
";  c #7C4952",
":  c #775456",
">  c #7E5356",
",  c #814B55",
"<  c #844D59",
"1  c #884D5B",
"2  c #815054",
"3  c #815659",
"4  c #8B575A",
"5  c #835E5F",
"6  c #924E63",
"7  c #8E5E64",
"8  c #945264",
"9  c #925860",
"0  c #995F63",
"q  c #9C536B",
"w  c #955F69",
"e  c #A15C6C",
"r  c #A45570",
"t  c #A35B72",
"y  c #AB5975",
"u  c #876565",
"i  c #8E6466",
"p  c #9C6366",
"a  c #926368",
"s  c #9C6669",
"d  c #936A6B",
"f  c #9B6F6F",
"g  c #93716F",
"h  c #996F70",
"j  c #9C7674",
"k  c #997976",
"l  c #A26373",
"z  c #B26E75",
"x  c #B5667A",
"c  c #A3787A",
"v  c #B9707A",
"b  c #BD787B",
"n  c #C17C7D",
"m  c #B56C82",
"M  c #BE6A80",
"N  c #B47785",
"B  c #BD7487",
"V  c #B17C85",
"C  c #C97F82",
"Z  c #CF798A",
"A  c #AA8583",
"S  c #AF8B87",
"D  c #B38E89",
"F  c #B8888D",
"G  c #B4958E",
"H  c #BA9B94",
"J  c #CF8587",
"K  c #D28889",
"L  c #D2908F",
"P  c #CF8190",
"I  c #C88897",
"U  c #DF8A93",
"Y  c #CC919C",
"T  c #E58F96",
"R  c #E79795",
"E  c #EA959B",
"W  c #EF999B",
"Q  c #F39D9D",
"!  c #C8A39F",
"~  c #D2A19C",
"^  c #F4A09E",
"/  c #D198A1",
"(  c #CEA4A3",
")  c #C7AAA1",
"_  c #CEAEA5",
"`  c #D2A0A4",
"'  c #D3AEA5",
"]  c #DCA6AA",
"[  c #D1B4A9",
"{  c #DDB0A8",
"}  c #D4B9AD",
"|  c #DABEB2",
" . c #E5A7AA",
".. c #F3A7A7",
"X. c #FFA7A5",
"o. c #F4AAA7",
"O. c #FFA8A6",
"+. c #FFACA9",
"@. c #FFB2AE",
"#. c #E7BEB4",
"$. c #E7BDBA",
"%. c #F5B7B1",
"&. c #FFB7B1",
"*. c #F0BAB6",
"=. c #FFBBB4",
"-. c #DEC0B6",
";. c #E4C5BA",
":. c #E4C9BC",
">. c #F4C1B7",
",. c #F5C4BC",
"<. c #FCC5BB",
"1. c #FCC9BF",
"2. c #EFC9C1",
"3. c #FECBC1",
"4. c #EFD3C6",
"5. c #F4D2C4",
"6. c #FFD4C7",
"7. c #FDD6C9",
"8. c #F3D9CA",
"9. c #F5D8CA",
"0. c #F5DCCC",
"q. c #F5DDCD",
"w. c #FCDBCC",
"e. c #FADDCF",
"r. c #FEDCCE",
"t. c #FCDECF",
"y. c #FFDECF",
"u. c #FBDFD0",
"i. c #FBE0D0",
"p. c #FCE1D2",
"a. c #FFE7D6",
"s. c #FFE8D7",
/* pixels */
"% % % % % % % # # % # % % % # % % % % % % % % % # % % # * % % % % % # # # * % % * % % % # % # % # % # * % % % # % # % % % % % % ",
"& & = ; ; , 4 4 4 4 4 4 4 4 4 4 4 4 4 4 4 4 4 4 4 4 4 4 4 4 4 4 4 4 4 4 4 4 4 4 4 4 4 4 4 4 4 4 4 4 4 4 4 4 4 4 4 4 , & , & & & ",
"& ; 1 6 8 e z v n n n n n n n n n n n n n n n n n n n n n n n n n n n n n n n n n n n n n n n n n n n n n n n n b z 0 8 6 1 = & ",
"& ; 6 q t x Z T R R R R R R R R R R R R R R R R R R R R R R R R R R R R R R R R R R R R R R R R R R R R R R R R R J x r q 6 , & ",
"& , 8 r y Z T W ^ ^ ^ ^ ^ ^ ^ X.^ ^ X.^ X.^ ^ ^ ^ ^ ^ ^ ^ ^ ^ ^ ^ ^ ^ ^ ^ ^ ^ ^ ^ ^ ^ ^ ^ ^ ^ ^ ^ ^ ^ ^ ^ ^ ^ ^ Q U M y r 6 < & ",
"- 1 e x x Z E ^ O.O.+.O.O.O.O.O.O.O.O.O.X.O.+.O.O.+.O.O.+.+.O.O.+.O.O.O.^ +.+.+.O.O.+.O.+.O.O.O.O.O.O.O.+.+.O.O...E P B x l 4 - ",
"; 9 v Z Z T Q X.O.O.X.X.X.X.X.X.X.X.X.X.X.X.X.X.O.X.X.X.O.X.X.O.O.O.O.O.^ O.O.^ X.X.X.O.O.O.X.O.^ O.O.O.O.O.^ O.X... .] ` F a ; ",
"2 p C R W ^ X.X.X.O.X.O.X.X.X.X.X.X.O.X.X.X.X.X.O.X.X.X.X.X.X.X.O.O.O.O.O.O.O.+.X.X.X.X.X.O.X.X.+.O.^ +.O.O.O.+.X.&.*.2.;.( j 3 ",
", p J W Q X.X.X.X.X.X.X.X.O.X.X.X.X.X.X.O.X.O.X.X.X.X.X.X.X.X.X.O.^ O.O.X.X.X.X.O.X.X.X.X.O.X.X.X.X.X.O.X.X.X.O.O.=.3.0.4._ j > ",
"2 p K ^ X.X.X.X.X.X.X.O.X.X.X.X.X.O.X.X.X.X.X.X.X.X.O.X.X.O.X.X.X.O.O.O.O.X.X.X.X.X.X.X.X.X.X.X.X.X.X.X.X.X.X.O.O.=.6.u.8.[ k 3 ",
"2 p K ^ X.X.X.X.O.X.X.X.X.X.X.X.X.X.X.O.X.O.X.X.X.X.X.X.X.X.X.X.X.O.O.O.X.X.O.X.X.X.O.X.X.X.X.X.O.X.X.X.X.X.O.O.+.=.7.u.9.[ j 3 ",
"2 p J Q X.X.X.X.X.X.X.X.X.X.X.O.X.X.X.X.X.X.X.X.X.O.X.X.O.X.O.X.X.X.X.X.X.X.X.X.O.X.X.X.X.O.X.X.X.X.X.X.X.O.X.O.+.=.7.u.9.[ k 3 ",
"2 p K ^ ^ X.X.X.X.X.X.X.X.X.X.X.O.X.X.X.X.X.X.X.X.X.X.O.X.X.X.X.X.X.X.X.X.X.X.X.X.X.O.X.X.X.X.X.X.X.O.X.X.X.X.O.+.=.6.i.9.[ j 3 ",
"2 p K ^ X.X.X.O.X.O.X.X.X.O.X.X.X.X.X.X.O.X.X.O.X.X.X.X.O.X.X.X.X.X.X.O.O.X.X.X.X.X.X.X.X.X.O.X.X.X.X.X.X.X.X.O.+.=.6.i.8.[ j 3 ",
"2 p K ^ X.X.X.X.X.X.X.X.X.X.X.O.X.X.O.X.X.X.X.X.X.X.X.X.X.X.O.X.O.X.X.X.X.X.X.X.X.X.X.X.X.X.X.X.X.X.X.X.X.O.X.O.+.=.6.i.8.[ j 3 ",
"2 p K ^ X.X.X.X.O.X.X.O.X.X.X.X.X.X.X.X.X.X.X.X.X.O.X.X.X.X.X.X.X.X.X.X.X.X.X.O.X.O.X.X.O.X.X.X.X.X.O.X.X.X.X.O.+.=.6.i.8.[ j 3 ",
"2 p K ^ X.X.O.X.X.X.O.X.X.X.X.X.X.X.X.X.X.X.X.X.X.X.O.X.X.X.X.X.X.X.O.X.X.X.X.X.X.X.X.X.X.X.X.O.X.X.X.X.X.X.X.O.+.=.6.u.8.[ j 3 ",
"2 p K ^ ^ O.X.X.X.X.X.X.X.X.X.X.X.O.X.X.O.X.X.X.X.X.X.X.O.X.X.X.X.X.X.X.X.O.X.X.O.X.X.O.X.X.X.X.X.O.X.X.X.X.X.O.+.=.6.u.8.[ j 3 ",
"2 p K ^ X.X.X.X.X.X.X.X.O.X.X.O.X.X.X.X.X.X.O.X.X.X.X.X.X.X.X.O.X.X.X.X.X.X.X.X.X.X.X.X.X.O.X.X.X.X.X.X.X.O.X.O.+.=.7.u.8.[ j 3 ",
"2 p K ^ X.X.O.X.O.X.X.X.X.X.X.X.X.X.X.O.X.X.X.X.O.X.X.X.X.X.X.X.X.O.X.X.O.X.X.O.X.X.X.X.X.X.X.X.X.X.X.O.X.X.X.O.+.=.6.u.8.[ j 3 ",
"2 p K ^ ^ X.X.X.X.X.X.X.X.X.X.X.X.X.X.O.O.X.X.X.X.X.X.X.X.X.X.X.X.X.X.O.X.X.X.X.X.O.X.X.X.X.X.X.X.O.X.X.O.X.X.O.+.=.6.u.8.[ j 3 ",
"2 p K ^ X.X.X.X.X.X.X.O.X.O.X.X.X.X.X.X.X.X.O.X.X.X.X.O.X.O.X.X.X.X.X.X.O.X.X.X.X.X.X.X.X.X.X.O.X.X.X.X.X.X.X.O.+.=.6.u.8.[ j 3 ",
"2 p K ^ X.X.X.X.X.O.X.X.X.X.X.X.X.O.X.X.O.X.X.X.O.X.X.X.X.X.X.X.X.X.X.X.X.X.X.O.X.X.X.X.X.O.X.X.X.X.O.X.X.O.X.O.+.=.6.i.9.[ j > ",
"2 p J ^ X.X.X.O.X.X.X.X.O.X.O.X.X.X.X.X.X.X.X.X.X.X.X.X.O.X.X.O.X.O.X.X.X.X.X.X.X.X.X.O.X.X.X.X.X.X.X.X.X.X.X.O.+.=.6.i.8.[ k 3 ",
"2 p K ^ ^ X.X.O.X.X.X.X.X.X.X.X.X.X.O.X.X.X.X.O.X.X.X.X.X.X.X.X.X.X.X.X.X.X.X.X.X.X.X.X.X.O.X.O.X.X.X.X.X.O.X.O.+.=.6.u.8.[ j 3 ",
"2 p K ^ X.X.X.X.X.X.X.O.O.X.X.X.X.X.X.X.X.X.X.X.X.X.X.O.O.X.X.X.X.X.X.X.X.O.X.X.O.X.X.X.X.X.X.X.X.X.O.X.X.X.X.O.+.=.6.u.8.[ j 3 ",
"> p K ^ X.X.X.X.X.O.X.X.X.X.O.X.X.X.X.X.X.O.X.X.X.O.X.X.X.X.O.X.O.X.X.O.X.X.X.X.X.X.O.X.X.X.O.X.X.X.X.X.X.X.X.O.+.=.6.u.8.[ j 3 ",
"2 p K ^ X.X.X.O.X.X.X.X.X.X.X.X.X.X.O.X.X.X.X.O.X.X.X.X.X.X.X.X.X.X.X.X.X.X.X.O.X.X.X.X.X.X.X.X.O.X.X.O.X.X.X.O.+.=.6.i.8.[ j 3 ",
"2 p K ^ ^ X.X.X.X.X.X.X.X.X.X.X.X.X.X.X.X.O.X.X.X.X.X.X.X.X.X.X.X.X.X.X.X.X.X.X.X.O.X.X.X.X.X.O.X.X.X.X.X.X.X.O.+.=.6.u.8.[ j 3 ",
"2 p K ^ X.X.X.X.X.X.X.O.O.X.X.X.O.X.X.X.X.X.X.X.X.X.X.O.O.X.X.X.X.X.O.X.O.X.X.X.X.X.X.X.X.X.X.X.X.X.X.O.O.X.X.O.+.=.6.u.8.[ k > ",
"2 p K ^ X.X.X.X.X.X.X.X.X.X.X.O.X.X.X.X.X.X.X.X.O.X.X.X.X.X.X.X.X.X.X.X.X.X.O.X.X.X.X.X.O.X.X.X.X.O.X.X.X.X.O.O.+.=.6.i.9.[ j 3 ",
"2 p K ^ ^ O.O.X.O.X.X.X.X.X.X.X.X.X.X.O.X.X.O.X.X.X.X.X.X.X.X.O.X.O.X.O.X.X.X.X.X.X.O.X.X.X.X.X.X.X.X.X.X.X.X.O.+.=.6.i.8.[ j 3 ",
"2 p K ^ X.X.X.X.X.O.X.X.X.X.X.X.O.X.X.X.X.X.X.X.X.X.X.X.O.X.X.X.X.X.X.X.X.X.O.X.O.X.X.X.X.O.X.X.O.X.X.X.X.O.X.O.+.=.6.u.8.[ j 3 ",
"2 p K ^ ..X.X.X.X.X.X.X.O.X.X.X.X.X.X.X.X.X.X.O.X.O.X.X.X.X.X.X.X.X.O.X.X.X.X.X.X.X.X.X.X.X.X.X.X.X.O.X.X.X.X.O.+.=.6.u.8.[ j 3 ",
"2 p K Q ^ X.X.X.X.X.O.X.X.X.X.O.X.X.X.O.O.X.X.X.X.X.X.X.X.X.O.X.X.X.X.X.X.X.X.X.X.X.O.X.X.X.O.X.O.X.X.X.X.X.X.O.+.=.6.u.8.[ j 3 ",
"2 p K Q X.X.X.X.X.X.X.X.X.X.X.X.X.X.X.X.X.X.X.X.X.X.O.X.X.X.X.X.X.O.X.X.X.O.X.X.X.X.X.X.X.X.X.X.X.X.X.X.X.O.X.O.+.=.6.u.8.[ j 3 ",
"2 p K ^ X.X.X.X.X.X.X.X.X.X.O.X.X.X.X.X.X.X.X.X.O.X.X.X.X.O.X.X.X.O.X.X.X.O.X.X.X.O.X.X.X.X.X.O.X.X.X.X.X.X.X.O.+.=.6.u.8.[ j 3 ",
"2 p K ^ X.X.X.X.O.X.X.X.X.X.X.X.X.O.X.X.X.X.O.X.X.X.O.X.X.X.X.X.X.X.X.X.X.X.X.X.X.X.X.X.X.X.X.X.X.X.O.X.X.X.X.O.+.=.6.i.8.[ k > ",
"2 p K ^ X.X.X.X.X.X.O.X.X.X.X.X.X.X.X.O.O.X.X.X.O.X.X.X.X.X.X.X.X.X.O.X.X.X.X.X.X.X.X.X.O.X.X.X.X.X.X.X.O.X.X.O.+.=.6.i.9.[ j 3 ",
"2 p K ^ X.X.X.X.O.X.X.X.O.X.X.X.X.X.X.X.X.X.X.X.X.X.X.X.X.O.X.X.X.X.X.X.X.X.X.O.X.X.O.X.X.X.X.X.X.O.X.X.X.X.X.O.+.=.6.i.8.[ j 3 ",
"2 p K ^ ^ X.X.X.X.X.X.O.X.X.X.X.O.X.X.O.X.X.X.X.X.X.X.X.X.X.X.X.X.X.X.X.X.O.X.X.X.O.X.X.X.X.X.X.O.X.X.X.X.X.X.O.+.=.6.u.8.[ j 3 ",
"2 p K ^ X.X.X.X.X.X.X.X.X.X.O.X.X.X.X.X.X.X.X.O.X.X.X.O.X.X.X.O.O.X.X.X.X.X.X.X.X.X.X.X.X.X.O.X.X.X.X.X.X.X.X.O.+.=.6.u.8.[ j 3 ",
"2 p K ^ X.X.X.X.X.O.X.X.X.X.X.X.X.X.O.X.O.X.X.X.O.X.X.X.X.X.X.X.X.X.O.X.X.X.X.X.X.X.X.X.O.X.X.X.X.X.X.O.O.X.X.O.+.=.6.u.8.[ j 3 ",
"2 p K ^ X.X.O.X.X.X.X.O.X.O.X.X.X.X.X.X.X.X.X.X.X.X.X.X.O.X.X.X.O.X.X.X.X.O.X.X.X.X.X.O.X.X.X.X.X.X.X.X.X.X.X.O.+.=.6.i.8.[ j 3 ",
"2 p K ^ ^ X.X.X.X.X.X.X.O.X.X.X.X.X.X.X.X.X.X.O.X.X.X.O.X.O.X.X.X.X.O.X.X.X.X.X.X.O.X.X.O.X.X.O.X.X.X.X.X.X.O.O.+.=.7.u.8.[ j 3 ",
"2 p K ^ X.X.X.X.O.X.X.X.X.X.X.X.O.X.X.O.X.X.X.X.X.X.X.X.X.X.X.X.X.X.X.X.X.X.O.X.X.X.X.X.X.X.X.X.X.O.X.X.X.X.X.O.+.=.6.u.8.[ k > ",
"2 p K ^ X.X.X.X.X.X.X.O.X.X.X.O.X.X.X.X.X.O.X.X.X.O.X.X.X.X.X.X.X.O.X.X.X.X.X.X.X.X.X.X.X.O.X.X.X.X.X.O.X.X.X.O.+.=.6.i.9.[ j 3 ",
"2 p J ^ X.X.X.O.X.X.X.X.X.X.X.X.X.X.X.X.X.X.X.X.X.X.X.O.X.X.X.X.X.X.X.X.O.X.X.X.X.X.O.X.X.X.X.X.X.X.X.X.X.X.X.O.+.=.6.i.8.[ j 3 ",
"2 p K ^ O.O.X.X.X.X.X.X.X.O.X.X.X.X.X.X.X.X.X.X.X.O.X.X.X.X.X.X.X.X.X.X.X.X.X.X.X.X.X.X.X.X.X.X.O.X.X.X.X.X.X.O.+.=.6.u.8.[ j 3 ",
"2 p K ^ ^ O.O.X.X.X.X.O.X.X.X.X.X.X.X.X.X.X.X.X.X.X.X.X.X.X.X.X.X.X.X.X.X.X.X.X.X.O.X.X.X.X.X.X.X.X.X.X.X.O.X.O.+.=.6.u.8.[ j 3 ",
"> p K ^ X.O.X.X.X.X.X.X.X.X.X.X.X.X.X.X.X.X.X.X.X.X.X.X.X.X.X.X.X.X.X.X.X.X.X.X.X.X.X.X.X.X.X.X.X.X.O.X.X.X.X.O.+.=.6.u.8.[ j 3 ",
"2 p K ^ ^ O.X.X.O.X.X.X.X.X.O.X.X.X.X.X.X.X.X.X.X.X.X.O.X.X.X.X.X.O.X.X.X.X.X.X.O.X.X.X.X.X.X.X.O.X.X.X.X.X.X.O.+.=.6.i.8.[ j 3 ",
"2 p K ^ ^ X.X.X.O.X.X.X.X.X.X.X.X.X.X.X.X.X.X.X.X.X.X.X.X.X.X.X.X.X.X.O.X.X.X.X.X.X.X.X.X.X.X.X.X.X.X.X.X.X.X.O.+.=.6.i.8.[ j 3 ",
"2 p L o.@.@.+.O.X.X.X.X.X.O.X.X.X.X.X.X.X.X.X.X.X.O.X.X.X.X.X.X.X.X.X.X.X.X.X.X.X.X.O.X.X.X.X.X.X.X.X.X.X.X.X.X.+.=.6.t.8.[ k > ",
"3 f ~ >.<.<.@.O.O.X.X.O.X.X.X.O.X.X.X.X.X.X.X.X.X.X.X.X.X.X.X.X.X.X.X.X.X.X.X.X.X.X.X.X.X.X.X.X.X.X.X.X.X.X.X.X.+.=.6.i.9.[ j 3 ",
"3 f ' 5.7.1.&.O.X.X.X.O.^ X.X.X.X.X.X.X.X.X.X.X.X.X.X.X.X.X.X.X.X.X.X.X.X.X.X.X.X.X.X.X.X.X.X.X.X.X.X.X.X.X.X.X.+.=.7.p.e.[ k 3 ",
"> j [ 9.t.6.=.+.X.X.X.X.X.X.X.^ X.X.X.X.X.X.X.X.X.X.X.X.X.X.X.X.X.X.X.X.X.X.X.X.X.X.X.X.X.X.X.X.X.X.X.X.X.X.X.O.O.=.7.i.0.} j 3 ",
"> f ! ;.2.2.*.+.@.@.@.@.@.@.@.@.@.@.@.@.@.+.@.@.+.@.@.@.@.@.@.@.@.@.@.@.@.@.@.@.@.@.@.@.@.@.@.@.@.@.@.@.@.@.@.@.&.%.#.-.} H d > ",
"> 7 V Y / ] *.3.1.1.1.1.1.1.1.6.3.3.3.3.3.3.3.3.3.3.3.3.1.3.3.3.1.1.1.3.3.3.1.1.3.3.3.1.1.1.3.3.1.1.3.3.1.1.1.1.,.{ D k g u : * ",
"; 1 s m Z Y $.7.t.t.p.t.i.t.t.t.t.t.t.t.t.t.t.t.t.t.t.t.t.t.t.t.t.t.t.t.t.t.t.t.t.t.t.t.t.t.t.t.t.t.t.t.t.i.i.w.5._ d $ @ @ # % ",
"& < q m m I $.e.a.a.a.s.s.s.a.a.a.a.a.a.a.a.a.a.a.a.a.a.a.a.a.a.a.a.a.a.a.a.a.a.a.a.a.a.a.a.a.a.s.s.a.a.s.a.s.i.8.) 5 X   . O # ",
"- ; 1 q t N ` | ;.:.:.:.:.:.:.:.:.:.:.:.:.:.:.:.:.:.:.:.:.:.:.:.:.:.:.:.:.:.:.:.:.:.:.:.:.:.:.:.:.:.:.:.:.:.:.;.} G : .   . O # ",
"- , , 1 4 w c S S S S S S S S S S S S S S S S S S S S S S S S S S S S S S S S S S S S S S S S S S S S S S S S S A g * o o o # # ",
"- + ; ; , 2 i i d d d d d d d d d d d d d d d d d d d d d d d d d d d d d d d d d d d d d d d d d d d d d d d d a 5 * + + + # % "
};
