/* XPM */
static char *b2288d35a5124ce7dc7f8846c0e0f713JRulfmiLvQoHWSQz[] = {
/* columns rows colors chars-per-pixel */
"64 64 180 2 ",
"   c None",
".  c #252625",
"X  c #262826",
"o  c #2A2A27",
"O  c #26292A",
"+  c #2B2B2A",
"@  c #21262B",
"#  c #392F27",
"$  c #322D2A",
"%  c #3B2F28",
"&  c #2E302E",
"*  c #3C3127",
"=  c #33302D",
"-  c #3B322B",
";  c #2E3030",
":  c #323332",
">  c #383430",
",  c #3C3935",
"<  c #3B3B3B",
"1  c #6A3E1E",
"2  c #443226",
"3  c #4B3526",
"4  c #43352B",
"5  c #4A3629",
"6  c #46382D",
"7  c #4C392C",
"8  c #523624",
"9  c #573923",
"0  c #5B3A23",
"q  c #533C2C",
"w  c #5C3E2A",
"e  c #403730",
"r  c #433831",
"t  c #453E38",
"y  c #533E30",
"u  c #633D23",
"i  c #6D3F21",
"p  c #603F29",
"a  c #713F21",
"s  c #70401F",
"d  c #7C431F",
"f  c #5B412D",
"g  c #43413E",
"h  c #4C433C",
"j  c #5C4331",
"k  c #56453A",
"l  c #6E4022",
"z  c #64422C",
"x  c #6B4329",
"c  c #734223",
"v  c #7B4421",
"b  c #73472C",
"n  c #764A2D",
"m  c #634531",
"M  c #694632",
"N  c #6D4A32",
"B  c #734C32",
"V  c #7B4F33",
"C  c #7B5035",
"Z  c #77533C",
"A  c #78563F",
"S  c #434443",
"D  c #4B4C4C",
"F  c #4B4541",
"G  c #544A42",
"H  c #594F48",
"J  c #5E5147",
"K  c #53534F",
"L  c #535454",
"P  c #5C5C5B",
"I  c #5B5654",
"U  c #615045",
"Y  c #6A564B",
"T  c #695445",
"R  c #635750",
"E  c #635851",
"W  c #6D6057",
"Q  c #646565",
"!  c #6B6661",
"~  c #6E6966",
"^  c #6B6C6D",
"/  c #796C65",
"(  c #766C66",
")  c #78716C",
"_  c #7C7C7D",
"`  c #717373",
"'  c #84461E",
"]  c #8A471D",
"[  c #86491F",
"{  c #8B4A1E",
"}  c #944C1B",
"|  c #9D4E1A",
" . c #9A501E",
".. c #A04F1A",
"X. c #A2511B",
"o. c #854B25",
"O. c #8A4C23",
"+. c #824E2C",
"@. c #8C4F28",
"#. c #974F20",
"$. c #984F20",
"%. c #8C522C",
"&. c #965022",
"*. c #9D5324",
"=. c #935228",
"-. c #94582F",
";. c #99582D",
":. c #835334",
">. c #8D5635",
",. c #945731",
"<. c #935B36",
"1. c #9C5E35",
"2. c #975F3A",
"3. c #995E38",
"4. c #A35421",
"5. c #A95721",
"6. c #AD5A24",
"7. c #A35A2A",
"8. c #A45824",
"9. c #B35E26",
"0. c #B25F28",
"q. c #A25E32",
"w. c #97603C",
"e. c #9D613A",
"r. c #B4622D",
"t. c #BB652D",
"y. c #BF682E",
"u. c #A36136",
"i. c #AC6335",
"p. c #A56339",
"a. c #AB6539",
"s. c #B26534",
"d. c #B56836",
"f. c #BD6935",
"g. c #B46A3A",
"h. c #BB6C3B",
"j. c #BF703E",
"k. c #C26A2F",
"l. c #C36C33",
"z. c #C86E36",
"x. c #C06E3A",
"c. c #CA7036",
"v. c #C5723D",
"b. c #CE7338",
"n. c #CD743B",
"m. c #D2763B",
"M. c #D6793E",
"N. c #DA7B3F",
"B. c #896044",
"V. c #86644E",
"C. c #916141",
"Z. c #836857",
"A. c #876C5C",
"S. c #AD6B40",
"D. c #A56D49",
"F. c #BD7649",
"G. c #B47246",
"H. c #AA7755",
"J. c #B17851",
"K. c #BE7F56",
"L. c #9F7F69",
"P. c #A07D67",
"I. c #DB7C40",
"U. c #908077",
"Y. c #9A877D",
"T. c #9E887C",
"R. c #AC846B",
"E. c #A3816D",
"W. c #B78463",
"Q. c #858381",
"!. c #8D8A88",
"~. c #908B87",
"^. c #939496",
"/. c #9B9997",
"(. c #9D9A98",
"). c #B99D8B",
"_. c #A89F99",
"`. c #A59B95",
"'. c #BFB1A9",
"]. c #BCBEBE",
/* pixels */
"                                                                                                                                ",
"                                                                                                                                ",
"                                                                                                                                ",
"                                                                                                                                ",
"                                                                                                                                ",
"                                                                                                                                ",
"                                                                                                                                ",
"                                                                                                                                ",
"                                                                                                                                ",
"                                                                                                                                ",
"                                                                                                                                ",
"                                                                                                                                ",
"                                                                                                                                ",
"                                                                                                                                ",
"                                                                          * * * $ +                                             ",
"                                                                        4 3 8 2 = o                                             ",
"                                                                    X $ 2 9 u 0 * O           X O X X O + +                     ",
"                                                                    2 3 0 i 1 0 * +         2 5 7 q q y $ +                     ",
"                                                                  3 d ' { o.u 2 + +       * 9 c %.;.a.2.7 O                     ",
"                                                                o 3 ] X.X.{     O +     X # 8 c =.r.x.p.j X                     ",
"                                                                O 3 ] X.X.}     O o O + X $ 2 0 c +.>.:.y                       ",
"                + + : ;                                         X 5 ] ..X.}   4 e - 6 r 4 4 7 q f z m y                         ",
"                & : , <                                         X 3 ' X...} O.n M M N B M N B z m q 4 -                         ",
"                $ < D L < + + + $ =                             X 3 ' X.| | *.;.3.<.>.>.>.<.<.>.B w - +                         ",
"                : S     g X o $ - 6 q y                         X 5 ' X...X.6.r.x.h.p.u.a.s.d.i.,.n 8 2                         ",
"                , L     K . X = y m N m 6                       X 3 ' ..| X.5.y.n.x.3.,.q.r.y.r.7.@.c 0 2                       ",
"                < P               p.1.:.6 @                     X 3 [ ..| X.6.t.b.g.m q v =.4.4.4.} } v 5 X                     ",
"                , P Q.              h.1.N q                     2 0 ] ....X.5.y.b.g.B z +.*.5.5.4.&.O.i 2 O +                   ",
"                  g D Q       J.h.k.c.v.g.<.y +             - 3 1 ' } ..| X.6.y.b.n.g.a.h.z.z.f.q.+.w 2 $ o + o                 ",
"                    X D !.`.E.D.s.y.m.I.I.g.B 6 6           - f V 3.q.q.7.8.6.t.b.N.I.I.M.I.I.v.p.V e X + + + +                 ",
"                      S ^ ( V.2.0.l.n.I.I.v.e.C m q         , G Z.P.R.R.H.                                + + +                 ",
"                        S G B >.7.t.z.M.N.m.h.e.V f         , G ~ L.Y.T.                                    + +                 ",
"                        : 4 u o.*.9.y.z.n.I.I.g.C j - O + & : < I Q ~ ( )       '.                    + + + +                   ",
"                        X % 9 o.} 4.9.f.n.I.I.x.:.j - O o + = < S D D L Q _       ].                + + + +                     ",
"                        O # 0 d } X.6.y.n.I.I.h.>.f * o + X + + ; : : g L _                       + + o + +                     ",
"                        + # 9 c { &.4.6.f.l.h.u.V z 7 5 5 5 3 3 3 2 5 y U ( ~.(.(.                + + + + +                     ",
"                            2 8 i v O.} &.=.b x c v ' ' ' ' ' O.{ O.O.o.+.Z Y R E H , o + + + O +                               ",
"                                3 u a v d 1 0 0 d { | X...X.X.X.6.9.9.0.7.%.b z z w % X . + + O +                               ",
"                                2 4 3 8 3 0 i d { | | | X.X.X.X.r.k.l.l.f.i.u.q.q.;.        + + +                               ",
"                                  # # # # 3 d } } |  .| X.X.9.t.z.b.m.n.c.g.I.F.K.W.        + + +                               ",
"                                      + + 3 d |  .......| X.l.b.m.M.M.m.c.x.G.W.).      ^ S ; + +                               ",
"                                        + 4 d | | } } } } 5.h.n.n.n.M.m.l.d.D.L._.    /.~ G > + +                               ",
"                                        o 5 ' } } ' ' d ' O.1.a.a.d.n.m.l.a.C.A.~.^.^.Q.E k e # $                               ",
"                                        + 2 v { v l u u u z n C V <.G.v.s.3.Z Y ~ ` ^ ! T j q 2 #                               ",
"                                        + - l v u 8 4 - - 4 6 e 4 m p.S.2.C y , g S S h m z w 6 $                               ",
"                                        + % w w 7 - = & : ; + X O r T B.T m > X X X X = f j y 6 -                               ",
"                                        + : e r > = : : : : + + O > G H H t : X     o $ t h t , :                               ",
"                                        + + : : + : + > : : = + + : < S t : :       o : < < < : +                               ",
"                                        + + + $ ; + + + = +         : : : + +           : : : + +                               ",
"                                        + + + +       + + +         o o + o +             + + + ;                               ",
"                                                                                                                                ",
"                                                                                                                                ",
"                                                                                                                                ",
"                                                                                                                                ",
"                                                                                                                                ",
"                                                                                                                                ",
"                                                                                                                                ",
"                                                                                                                                ",
"                                                                                                                                ",
"                                                                                                                                ",
"                                                                                                                                ",
"                                                                                                                                ",
"                                                                                                                                ",
"                                                                                                                                "
};
