/* XPM */
static char *_dfda8b818204f50c0f320fc7ccb12d1XSPRylakig199c0g[] = {
/* columns rows colors chars-per-pixel */
"64 64 102 2 ",
"   c #AA5675",
".  c #AD5B75",
"X  c #B05776",
"o  c #B35976",
"O  c #BC5B77",
"+  c #B36576",
"@  c #B96176",
"#  c #B56976",
"$  c #BA6D77",
"%  c #BC7377",
"&  c #BF7878",
"*  c #C45E77",
"=  c #C55E78",
"-  c #C95F78",
";  c #C76378",
":  c #CC6078",
">  c #C56878",
",  c #C96C78",
"<  c #D46279",
"1  c #DB647A",
"2  c #D96B7A",
"3  c #C07977",
"4  c #CE7178",
"5  c #C37F78",
"6  c #CA7D79",
"7  c #D67679",
"8  c #D9767A",
"9  c #DC7E7A",
"0  c #E3677B",
"q  c #ED677C",
"w  c #E7687B",
"e  c #EE6A7C",
"r  c #F06A7C",
"t  c #E9737B",
"y  c #F0767C",
"u  c #F0797C",
"i  c #C68278",
"p  c #CA8579",
"a  c #CB8C79",
"s  c #D38D7A",
"d  c #CE9179",
"f  c #D09479",
"g  c #D59C7A",
"h  c #DD9B7B",
"j  c #EA837B",
"k  c #ED8B7C",
"l  c #F2867C",
"z  c #F38C7C",
"x  c #F4927D",
"c  c #D8A07A",
"v  c #DEAA7A",
"b  c #E3AB7B",
"n  c #F6A07C",
"m  c #F5A87D",
"M  c #E1B07B",
"N  c #E2B27B",
"B  c #E4B57B",
"V  c #EEB37D",
"C  c #E6B87B",
"Z  c #E7BA7B",
"A  c #E7BB7B",
"S  c #E8BB7B",
"D  c #E9BC7B",
"F  c #F2B77C",
"G  c #F9B17D",
"H  c #FAB27D",
"J  c #F3B97D",
"K  c #EDC27C",
"L  c #EDC37C",
"P  c #EFC57C",
"I  c #F0C67C",
"U  c #F6C77D",
"Y  c #FBC27D",
"T  c #F8C17E",
"R  c #FAC27E",
"E  c #FBC47E",
"W  c #FBC57E",
"Q  c #FBC67E",
"!  c #FCC67E",
"~  c #F2CA7D",
"^  c #F2CD7D",
"/  c #F4CF7D",
"(  c #FBC87E",
")  c #FCCC7E",
"_  c #FCCE7E",
"`  c #F6D47D",
"'  c #FED27E",
"]  c #F8D47C",
"[  c #F8D47D",
"{  c #F8D67D",
"}  c #F9D67D",
"|  c #F8D77D",
" . c #FED67E",
".. c #FED97E",
"X. c #FCDB7E",
"o. c #FCDE7E",
"O. c #FFDE7E",
"+. c #FFE27D",
"@. c #FFE07E",
"#. c #FFE37E",
"$. c #FFE47E",
"%. c #FFE57E",
/* pixels */
"@.@.@.@.@.@.@.@.@.@.@.@.@.@.@.@.O.$.O.O.$.} C f # . & g ~ $.$.O.$.O.O.O.$.O.O.$.@.$.O.O.$.O.O.O.@.@.$.L i .   $ v ^ X.@.@.@.@.@.",
"@.@.@.$.@.@.$.@.@.$.@.@.$.@.@.$.$.$.@.$.O.` C f # o & g ^ $.@.$.@.$.$.$.@.$.@.$.@.$.@.$.@.$.$.$.@.$.@.L i .   % v ` o.$.@.$.$.@.",
"$.@.$.$.@.$.$.@.$.$.@.$.$.@.$.$.$.@.$.@.@.} C f $ . % g ^ $.$.@.$.$.$.@.$.@.$.$.@.$.$.$.$.$.$.@.O.$.$.L i .   $ v ^ o.@.$.@.$.@.",
"Q Q Q Q Q Q Q R Q Q Q Q Q Q Q Q Q ( _ ..O.} C f $ . $ s V ( E E R E Q Q Q Q E R Q Q Q E R E Q _ ..$.@.L i .   $ h V R Q Q Q Q Q ",
"z z z z z z z z z z z x z x z z z x m R  .} A f + . @ 7 j z x z z x z x z z z z x z z z z z x x ( $.@.L i .   @ 7 j k x z z z z ",
"e e r t t r y e r t e e e e e e e u x G ' } A f $   O < 0 q r t e e e e e e r t r r r t e e e z Q @.@.L i .   o < 0 e e e t e e ",
"e e e e r e e e e e e e e e e e q y x G ' } A f +   O - 0 e e e e e e e e e r e e e e e e e q z T @.$.L i +   O < 0 e e e r e e ",
"e e e e r e e e e e e e e e e e q y x G  .` A f $   X - 0 e e e e e e e e e e e e e e e e e q l T O.$.L i .   o < 0 e e e e e e ",
"e e e e e e e e e e e e e e e e q y x G ' } A f # X O - 0 r r w e e e e e e e e e e e e e q e l R @.$.L i .   O < w e e e e e e ",
"e e e e e e e e e e e e e e e e r y x G ' } S f # X o - 0 r r r e e e e e e e e e e e e q q e z R $.$.L i .   o < 0 w e e e e e ",
"r e r e r e e e r r e r e r r e q y z G ' } S f # X o < 0 e r r e r e r q r r r r r r e r r q l R @.$.L i .   O < w e e e r r e ",
"w w w w w w w w w w w w w w w w w t k m U ~ M a #   O = 0 w w 0 w w w w w w w w w w w w w w w j F ] } Z i .   o : 1 w w w w w w ",
"1 1 < 1 < 1 < 1 1 1 < 1 1 1 < 1 1 2 9 h v M g i +   o = : 2 1 1 1 1 1 < 1 < 1 < 1 1 < 1 < 1 1 8 b B B c % .   X * < < 1 1 < 1 1 ",
"= = = = = = - = = = = = = = = = = > , 6 a a & $ .   o o = = = = = ; = ; = = = ; ; = = ; = = = , 6 a d i $ .   . O * = = ; * = = ",
"o o o o o o o o o o o o o o o o o X o + + + + .       X X o o o o o o . o o X . o X o X o o o o + + # + .       X X o o o X o o ",
"                                . . . .   X . . . . . .   . . .   .   . X . .                             .                     ",
"o o X X o o o o X X X       . + + + + + + + + + + + # + # + + + + + + $ + + + + .         o o . o o o o o o o o o o o o o o o   ",
"= = = = = = = * = = O X   . # 3 i a a a a a a a a a a a a a a a a a a a a a p & o     X * = = ; * * * * * * = = * * ; = * * * = ",
"0 0 1 0 0 0 0 1 0 1 - O X + 5 g A ~ P P P P ^ P P P P P P I P I L I L L L L D g $     O < 0 0 0 0 0 w 0 0 0 0 0 0 0 1 0 0 0 0 0 ",
"e e r r e e r r r 0 < O X + a M ` $.$.$.$.$.$.$.$.$.$.@.$.$.$.%.$.$.$.$.$.$.X.M %     O 0 r r r e e e q e e e e e e r e e r e e ",
"e r e r e e r r e w < O X + a M ` $.$.$.$.$.$.@.@.$.$.$.$.$.$.$.$.$.$.$.@.$.} B %     O 1 r r r e e r e r e r r r e r e e e e r ",
"e e e e e e e e e w < O X + 6 h J Q Q R Q Q Q Q E R Q Q Q R Q R Q Q Q Q R R J h #     O 0 e r e e e e e e e e e e e e e e e e e ",
"e e e e e e e r e w < O X o > 8 j l l l l l l l l l l l l l l l l l l l l l j 8 O     O 0 r r e e e e e e e e e e e e e e e e e ",
"e e e e e e e e e 0 < O X X = < w e q q q q q q q q q q q q q q q q q q q q w < o     * 1 r e e e e e e e e e e e e e e e e e e ",
"e e e e e e e e r w < O . o = < w q q q r r r r q r r q r r r r e q e q e q w < O     O 0 e e e e e e e e e e e e e e e e e e e ",
"e e e e e e e r e w < O X X = < w q r e e e w r r w r r e e w r e e e e e e w < o     O 1 e r e e e e e e e e e e e e e e e e e ",
"e e e e e e e r e w < O X X O 1 0 r r r e e e w w r w r e e w r e e e e q q w 1 O     * 0 e e e e e e e e e e e e e e e e e e e ",
"r e r r e r e r e w < O X X ; < w r r r r e r r e r r r r e r r e e r e r r w < o     O 0 r r e r r e r e r e e r e r e r e r r ",
"e r r e r e e r r w < O o X = 1 w r w r r r r r r e e e e e r r e e r r r e w 1 O     O 0 r r r e e e e e r e e e e r e e e e e ",
"0 0 0 1 0 0 0 1 0 1 - O X X O : 1 0 0 0 0 0 0 1 0 0 0 0 0 0 0 1 0 0 w 1 0 1 1 : o     O < 0 0 0 0 0 0 0 0 1 0 0 0 0 0 0 0 0 0 0 ",
"* * * * = * * * = * o o     o O = = = = = = = ; = = = = = = ; ; = ; * * * ; * O       o O = = * * * = * * ; * * * = = = * * * = ",
"o o o o o o o o o X X       X X X o o X X o X o o o o o X X X X o . X o X o o X         o o   o o o o o o o o o o o   o o o o o ",
"                                            .     X                     X       .     .                   X   X     .     .     ",
"o o o X o o X o o o o o o o X o o o o o o o X o       X o o o X o o o o o o o o o X X o X X X o o o o o         X o o o X o o X ",
"= = = = = - = - = = = = = = ; = = = = = = = O o X   o O = = ; = = = = = - = = = = = = ; = = = = = = = O o     o O * ; = = = = = ",
"< 1 1 1 < 1 < 1 1 1 < 1 1 < 1 1 < 1 1 1 < < - = o   o O < < 1 1 < 1 1 < 1 < 1 < 1 1 < 1 1 < 1 1 1 1 1 - O     o * - < 1 < 1 1 < ",
"w w w w w w w w w w w w w w w w w w w w w w < = o   O ; 1 w w w w w w w w w w w w w w w w w w w w w w 1 O X   o < 1 w w w w w w ",
"r r e r r r e r e e e e e r r e r e e r r w 1 - o X o : w e r r r e r r q q q r r r e r e r e r r r q 0 O X   o < w w e r r r q ",
"e e e e e e e e e e e e e e e e e e e e e w 1 = o X O : 0 e e e e e e e e e q e e e e e e e e e q r r 2 =     O < w e e e e q q ",
"e e e e e e e e e e e e e e e e e e e e e w 1 ; o   O : w e r e e e e e e e e e e e e e e e e e q r q w O X   o < w e e e e q r ",
"e e e e e e e r e e e e e e e e e e e r e w 1 - o   @ : 0 e r e e e e e e e e e e e e e e e e e e e r 0 O X   o < w e e e e e e ",
"e e e e e e e e e e e e e e e e e e e e r w 1 - o X O : 0 e e e e e e e e e e e e e r e e e e e e e q 0 O X   O < 0 q q e e e e ",
"e e e e e e e e e e e e e e r e e e e e r w 1 - o X O : 0 e e e e e e e e e e e e e e e e e e e e e q 0 = X   o < w w q e e e e ",
"e e e e e e e e e e e e e e e e e e e e r w 1 = o   o < 0 e r e e e e e e e e e e e e e e e e e e e q 0 O     O < 0 w e e e e e ",
"e e e r e e e e e e e e e e e r e e e e e w 1 - o X @ - w e e e e e q e e e e e e e r e e e e e e e r w O     o < w e q e e e e ",
"r e r r r e e r r r r e r e r r r e r r r w 1 - o   O - 0 r e e e r r q e r e e e r r r e r r e e e q 0 =     o < w q r e e e r ",
"r r r r r r r r r r r r r r r r r r r r r w 1 - o X O < w e e e r e r r r r r r r r r r r r r e r e e 0 O X . O < 0 q r r r r r ",
"0 1 1 0 1 1 0 1 1 0 1 1 0 1 1 1 0 1 1 0 1 1 < = X   o O 1 0 0 0 2 w 1 0 2 0 1 0 1 0 1 1 1 0 1 0 0 1 1 < O     X - < 1 1 0 1 0 2 ",
"O O O O O O O O @ O O O O O * O O O O O O O o o X     o O O O O O O O O O O O O O O O O O O O O O O O O         X O O O O O O O ",
"                                    .                                                                                           ",
"                  .                               .                 .       .                     .     .     .                 ",
"o O o o o o O o o o o       . o o o o X o o o O o o o o o o o o O X o O o X X X X     X o o X O O X . O O o X O o . o O O o . O ",
"< < < : < < < < < : * o   X O * - < : < - < < < < < < < < - < < < < < < < < - = o     o - < < < - < < - < : < - - < < < - < - < ",
"0 0 0 0 0 0 0 0 0 1 : O   X O : 0 0 w 0 w 0 0 0 0 0 0 0 0 0 0 w 0 0 0 0 0 0 0 - o     O 1 0 0 0 0 w 0 w w w 0 w w 0 0 w w w w w ",
"e e w e w e e e w 0 : O X X = < 0 e e e q e q q e e e e e e e w e w w w w w w < o     O 0 w e q q q w e q e e w w e r w q q w q ",
"w w w w w w w e e w < O X X * < 0 w 0 w w 0 w 0 w w 0 w w w w w w w w e r e 0 2 O   X O 1 w 0 0 w w w w w w w w w w w w w w w w ",
"< < 1 < 1 1 0 w e w < O X X O = < 1 < 1 < 1 < 1 1 < 1 2 < 1 < 1 1 2 1 0 w w w 1 o     o < 1 2 1 < 1 < 1 2 < < 1 1 1 1 < 1 < < 1 ",
"= = * ; O : 1 w w w < O X   o O O = = = = = = = = = = = = = = = = = - < w r 0 2 O     X O = = = = = = = = = = O = = = = = = = = ",
"o o X X o O < 1 w w < * X   X X         X X X X X X X . X o   X X o O - 0 r w 1 o       X X X X X X X X X X     X X X X . X X X ",
"          o : 1 e w : O X                                           o = 0 q 0 1 o                 .                             ",
"          o : 1 w w < O X                                           o = 0 r 0 1 O                                               ",
"          o : 1 w w : = X                                           o = 0 w 0 1 o                                               ",
"          o - 0 q w : O                                           X o = 0 r w 1 X                                               ",
"        X o - 2 w w < O .                                           X = 0 r 0 1                                                 "
};
